<?xml version="1.0" encoding="iso-8859-1"?>
<!-- Generator: Adobe Illustrator 19.2.0, SVG Export Plug-In . SVG Version: 6.00 Build 0)  -->
<svg version="1.1" xmlns="http://www.w3.org/2000/svg" xmlns:xlink="http://www.w3.org/1999/xlink" x="0px" y="0px"
	 viewBox="0 0 85.15 65.642" style="enable-background:new 0 0 85.15 65.642;" xml:space="preserve">
<g id="Mal_x5F_and_x5F_Menning">
	<path style="fill-rule:evenodd;clip-rule:evenodd;" d="M42.341,6.513c0.682-0.454,0.836-1.264,1.268-1.825
		c2.053-2.672,5.957-4.77,10.898-4.562c1.905,0.08,3.937-0.037,5.931,0.051c4.047,0.178,8.237,0,12.369,0
		c4.152,0,8.265,0.015,12.165,0.152c0.27,1.901,0.152,3.854,0.152,5.779c0,13.681-0.042,26.922-0.102,40.451
		c-7.699,0.18-16.01,0.059-23.875,0.101c-4.061,0.021-8.111-0.372-11.507,0.507c-2.286,0.592-4.424,1.781-5.931,3.346
		c-0.398,0.414-1.082,1.561-1.47,1.571c-0.644,0.017-1.074-1.489-1.622-1.673c-1.809-2.142-4.92-3.659-8.719-3.802
		c-2.813-0.105-5.965-0.051-9.175-0.051c-6.141,0-12.405-0.05-18.046,0.101c-0.248,0.708-0.206,1.594-0.203,2.433
		c0.003,0.836,0.021,1.713,0.102,2.535c1.546,0.274,3.191,0.175,4.815,0.102c1.585-0.072,3.21,0.042,4.816,0.05
		c3.259,0.017,6.555-0.05,9.834-0.05c6.746,0,12.97,0.11,15.866,4.106c0.608,0.621,1.18,1.563,1.622,2.636
		c0.142,0.344,0.3,0.842,0.558,0.862c0.443,0.034,0.865-1.364,1.217-1.977c2.759-4.814,9.058-5.625,16.576-5.576
		c8.504,0.056,17.021-0.002,25.143,0.203c0.17,1.528,0.166,3.743,0,5.272c-9.446,0.15-20.174,0.05-30.06,0.05
		c-2.146,0-3.986-0.022-5.424,0.659c-2.068,0.98-3.471,2.697-4.106,5.069c-0.206,0.769-0.2,1.622-0.558,2.484
		c-1.67,0.17-4.006,0.163-5.677,0c-0.436-0.785-0.45-1.65-0.608-2.382c-0.558-2.581-1.761-3.951-3.903-5.069
		c-0.731-0.381-1.391-0.664-2.231-0.76c-0.881-0.101-1.802,0.001-2.94-0.05c-1.833-0.083-3.873-0.051-5.779-0.051
		c-5.744,0-11.968,0.05-17.894,0.051c-1.966,0-3.915,0.183-5.728-0.102c-0.062-4.9-0.25-10.554,0.051-15.512
		c6.084-0.239,12.986-0.152,19.719-0.152c3.295,0,6.699-0.108,9.834,0c1.76,0.061,3.268-0.015,4.664,0.304
		c1.958,0.448,3.635,1.549,5.171,2.484c0.387-3.096,0.001-6.45,0.152-9.682c0.151-3.259,0-6.592,0-9.834c0-3.343,0-6.758,0-9.936
		c0-1.588-0.093-3.284-0.558-4.41c-0.917-2.222-2.938-3.848-5.323-4.613c-1.27-0.408-2.778-0.412-4.461-0.507
		c-3.066-0.174-6.42,0.051-9.682,0.051c-3.312,0-6.652,0-9.936,0c-3.251,0-6.559,0.088-9.581-0.101
		c-0.168-1.443-0.168-3.576,0-5.019c8.11-0.278,17.002-0.068,25.447-0.203c3.604-0.058,6.933-0.073,9.53,0.659
		c1.913,0.539,3.54,1.535,4.866,2.788c0.425,0.401,0.926,0.901,1.217,1.318C41.617,5.35,41.689,6.006,42.341,6.513z M57.852,5.499
		C55.443,5.523,52.83,5.36,51.06,5.803c-2.135,0.534-4.101,2.287-5.069,4.106c-1.405,2.64-0.963,7.352-0.963,11.354
		c0,7.776-0.143,15.504,0.101,23.014c0.568-0.071,1.03-0.485,1.521-0.761c1.539-0.863,3.201-1.568,5.272-1.875
		c1.42-0.211,3.034-0.102,4.663-0.102c7.064,0,14.298,0.051,21.341,0.051c0.739,0,1.568,0.14,2.23-0.203
		c0.11-5.59,0.101-11.709,0.101-17.843c0-4.617,0.158-9.37,0-13.585c-0.055-1.462,0.11-2.889-0.152-4.258
		C72.923,5.566,65.05,5.428,57.852,5.499z"/>
</g>
<g id="Layer_1">
</g>
</svg>
